<svg xmlns="http://www.w3.org/2000/svg" xmlns:xlink="http://www.w3.org/1999/xlink" width="512" height="512"><switch><g><defs><circle id="a" cx="256" cy="256" r="254"/></defs><clipPath id="b"><use xlink:href="#a" overflow="visible"/></clipPath><path clip-path="url(#b)" fill="#24467C" d="M-186.33-10h885.152v530.091H-186.33z"/><path clip-path="url(#b)" fill="#FCCE22" d="M117.397 261.654l14.479-10.518h-17.897l-5.53-17.022-5.531 17.022H85.022L99.5 261.654l-5.529 17.022 14.478-10.519 14.481 10.519zM191.296 133.658l14.479-10.519h-17.896l-5.532-17.022-5.53 17.022h-17.896l14.477 10.519-5.531 17.02 14.48-10.52 14.478 10.52zM136.458 186.61l14.478-10.52H133.04l-5.531-17.02-5.531 17.02h-17.897l14.48 10.52-5.531 17.019 14.479-10.519 14.478 10.519zM265.194 113.856l14.48-10.518h-17.897l-5.532-17.021-5.53 17.021h-17.897l14.479 10.518-5.529 17.024 14.477-10.521 14.481 10.521zM395.095 261.654l-14.48-10.518h17.898l5.53-17.022 5.531 17.022h17.896l-14.477 10.518 5.528 17.022-14.478-10.519-14.479 10.519zM321.195 133.658l-14.478-10.519h17.895l5.532-17.022 5.533 17.022h17.891l-14.473 10.519 5.528 17.02-14.479-10.52-14.48 10.52zM376.036 186.61l-14.479-10.52h17.896l5.529-17.02 5.53 17.02h17.898l-14.477 10.52 5.527 17.019-14.478-10.519-14.479 10.519z"/><path clip-path="url(#b)" fill="#FCCE22" d="M247.297 113.856l-14.479-10.518h17.897l5.53-17.021 5.532 17.021h17.897l-14.48 10.518 5.532 17.024-14.481-10.521-14.477 10.521zM191.296 389.649l14.479-10.517h-17.896l-5.532-17.025-5.53 17.025h-17.896l14.477 10.517-5.531 17.021 14.48-10.52 14.478 10.52zM136.458 336.697l14.478-10.517H133.04l-5.531-17.021-5.531 17.021h-17.897l14.48 10.517-5.531 17.02 14.479-10.519 14.478 10.519zM321.195 389.649l-14.478-10.517h17.895l5.532-17.025 5.533 17.025h17.891l-14.473 10.517 5.528 17.021-14.479-10.52-14.48 10.52zM376.036 336.697l-14.479-10.517h17.896l5.529-17.021 5.53 17.021h17.898l-14.477 10.517 5.527 17.02-14.478-10.519-14.479 10.519zM247.297 409.452l-14.479-10.521h17.897l5.53-17.02 5.532 17.02h17.897l-14.48 10.521 5.532 17.021-14.481-10.523-14.477 10.523z"/></g></switch></svg>