<svg width="17" height="16" viewBox="0 0 17 16" fill="none" xmlns="http://www.w3.org/2000/svg" aria-label="Search Icon"><path fill-rule="evenodd" clip-rule="evenodd" d="M10.9584 6.50448C10.9584 9.0913 8.86132 11.1883 6.2745 11.1883C3.68768 11.1883 1.59064 9.0913 1.59064 6.50448C1.59064 3.91766 3.68768 1.82062 6.2745 1.82062C8.86132 1.82062 10.9584 3.91766 10.9584 6.50448ZM10.4559 11.1827C9.34601 12.1754 7.88074 12.779 6.2745 12.779C2.80919 12.779 0 9.96979 0 6.50448C0 3.03917 2.80919 0.22998 6.2745 0.22998C9.73981 0.22998 12.549 3.03917 12.549 6.50448C12.549 7.78902 12.163 8.98341 11.5006 9.97797L15.9349 14.4122C16.2455 14.7228 16.2455 15.2264 15.9349 15.537C15.6243 15.8476 15.1208 15.8476 14.8102 15.537L10.4559 11.1827Z" fill="#E7E6E3"/></svg>