<svg viewBox="0 0 25 20" id="jcb" xmlns="http://www.w3.org/2000/svg"><defs><linearGradient id="bva" gradientUnits="userSpaceOnUse" x1="117.386" y1="81.399" x2="157.33" y2="81.399" gradientTransform="matrix(.17077 0 0 .17666 -3.313 -3.3)"><stop offset="0" stop-color="#007940"/><stop offset=".229" stop-color="#00873f"/><stop offset=".743" stop-color="#40a737"/><stop offset="1" stop-color="#5cb531"/></linearGradient><linearGradient id="bvb" gradientUnits="userSpaceOnUse" x1="117.384" y1="75.171" x2="157.332" y2="75.171" gradientTransform="matrix(.17077 0 0 .17666 -3.313 -3.3)"><stop offset="0" stop-color="#007940"/><stop offset=".229" stop-color="#00873f"/><stop offset=".743" stop-color="#40a737"/><stop offset="1" stop-color="#5cb531"/></linearGradient><linearGradient id="bvc" gradientUnits="userSpaceOnUse" x1="117.385" y1="68.399" x2="157.331" y2="68.399" gradientTransform="matrix(.17077 0 0 .17666 -3.313 -3.3)"><stop offset="0" stop-color="#007940"/><stop offset=".229" stop-color="#00873f"/><stop offset=".743" stop-color="#40a737"/><stop offset="1" stop-color="#5cb531"/></linearGradient><linearGradient id="bvd" gradientUnits="userSpaceOnUse" x1="27.959" y1="75.171" x2="68.522" y2="75.171" gradientTransform="matrix(.17077 0 0 .17666 -3.313 -3.3)"><stop offset="0" stop-color="#1f286f"/><stop offset=".475" stop-color="#004e94"/><stop offset=".826" stop-color="#0066b1"/><stop offset="1" stop-color="#006fbc"/></linearGradient><linearGradient id="bve" gradientUnits="userSpaceOnUse" x1="72.46" y1="75.171" x2="111.855" y2="75.171" gradientTransform="matrix(.17077 0 0 .17666 -3.313 -3.3)"><stop offset="0" stop-color="#6c2c2f"/><stop offset=".173" stop-color="#882730"/><stop offset=".573" stop-color="#be1833"/><stop offset=".859" stop-color="#dc0436"/><stop offset="1" stop-color="#e60039"/></linearGradient></defs><path d="M24.918 15.883c0 2.199-1.73 3.988-3.855 3.988H.081V4.074c0-2.199 1.73-3.988 3.856-3.988h20.98zm0 0" fill="#fff"/><path d="M18.086 11.832h1.594c.047 0 .152-.016.199-.016.3-.062.558-.343.558-.738a.76.76 0 00-.558-.738c-.047-.016-.137-.016-.2-.016h-1.593zm0 0" fill="url(#bva)"/><path d="M19.496 1.422c-1.516 0-2.762 1.27-2.762 2.855v2.97h3.903c.09 0 .195 0 .273.015.88.047 1.531.52 1.531 1.336 0 .644-.437 1.191-1.257 1.304v.032c.894.062 1.578.578 1.578 1.379 0 .863-.758 1.43-1.762 1.43h-4.281v5.808h4.054c1.516 0 2.762-1.27 2.762-2.856V1.422zm0 0" fill="url(#bvb)"/><path d="M20.242 8.785a.663.663 0 00-.562-.676c-.032 0-.106-.015-.153-.015h-1.441v1.383h1.441c.047 0 .137 0 .153-.016a.66.66 0 00.562-.676zm0 0" fill="url(#bvc)"/><path d="M4.227 1.422c-1.516 0-2.762 1.27-2.762 2.855v7.051c.773.395 1.578.645 2.383.645.957 0 1.472-.598 1.472-1.414V7.23h2.367v3.313c0 1.289-.773 2.34-3.398 2.34-1.594 0-2.84-.36-2.84-.36v6.012h4.055c1.516 0 2.762-1.27 2.762-2.855V1.422zm0 0" fill="url(#bvd)"/><path d="M11.863 1.422c-1.52 0-2.761 1.27-2.761 2.855v3.739c.695-.614 1.91-1.004 3.867-.91 1.05.046 2.172.343 2.172.343V8.66c-.563-.297-1.23-.566-2.094-.629-1.488-.11-2.383.645-2.383 1.965 0 1.332.895 2.086 2.383 1.961.863-.062 1.531-.344 2.094-.629v1.211s-1.11.297-2.172.344c-1.957.094-3.172-.297-3.867-.91v6.593h4.05c1.52 0 2.762-1.27 2.762-2.855V1.42zm0 0" fill="url(#bve)"/></svg>