<svg viewBox="0 0 29 23" id="maestro" xmlns="http://www.w3.org/2000/svg"><path d="M28.738 14.762v-.352h-.09l-.105.242-.105-.242h-.09v.352h.062v-.266l.098.23h.066l.102-.23v.266zm-.574 0v-.293h.113v-.059h-.293v.059h.114v.293zm0 0" fill="#0099df"/><path d="M18.438 16.281h-7.844V1.953h7.844zm0 0" fill="#6c6bbd"/><path d="M11.098 9.117a9.146 9.146 0 013.422-7.164A8.84 8.84 0 008.98.003C4.031.004.02 4.087.02 9.118c0 5.031 4.011 9.113 8.96 9.113a8.84 8.84 0 005.54-1.949 9.146 9.146 0 01-3.422-7.164" fill="#eb001b"/><path d="M29.012 9.117c0 5.031-4.012 9.113-8.961 9.113a8.84 8.84 0 01-5.54-1.949 9.146 9.146 0 003.423-7.164 9.146 9.146 0 00-3.422-7.164A8.84 8.84 0 0120.05.003c4.949 0 8.96 4.083 8.96 9.114" fill="#0099df"/><path d="M21.078 20.328c.106 0 .254.02.371.067l-.16.496a.804.804 0 00-.324-.059c-.34 0-.508.219-.508.621v1.356h-.516V20.39h.512v.293a.7.7 0 01.625-.356m-1.91.543h-.848v1.094c0 .242.086.402.344.402a.912.912 0 00.457-.137l.149.454a1.223 1.223 0 01-.645.187c-.613 0-.828-.336-.828-.898V20.87h-.48v-.48h.48v-.735h.523v.735h.848zm-6.629.516c.055-.348.266-.586.633-.586.336 0 .547.21.601.586zm1.774.21c-.004-.753-.465-1.269-1.13-1.269-.699 0-1.187.516-1.187 1.27 0 .77.508 1.273 1.223 1.273.355 0 .683-.094.972-.34l-.254-.39a1.11 1.11 0 01-.69.254c-.333 0-.638-.157-.712-.594h1.766c.008-.067.011-.13.011-.203m2.274-.59a1.483 1.483 0 00-.738-.207c-.286 0-.453.105-.453.281 0 .164.175.207.402.238l.242.035c.52.079.832.301.832.727 0 .457-.398.79-1.086.79-.387 0-.746-.102-1.031-.317l.246-.41c.172.136.434.253.793.253.352 0 .539-.105.539-.293 0-.136-.133-.21-.418-.253l-.242-.036c-.531-.074-.82-.316-.82-.71 0-.485.386-.778.988-.778.379 0 .723.086.973.254zm6.387-.18a.746.746 0 00-.535.219.816.816 0 00-.215.563.81.81 0 00.215.558c.066.07.144.125.238.16.09.04.191.059.297.059a.76.76 0 00.535-.219.664.664 0 00.156-.246.81.81 0 00.059-.313.816.816 0 00-.215-.562.76.76 0 00-.535-.219m0-.5c.183 0 .355.035.511.098.157.066.293.156.41.27.114.113.204.25.27.406.063.156.094.324.094.507 0 .18-.031.352-.094.504a1.273 1.273 0 01-.27.407 1.298 1.298 0 01-.922.367c-.183 0-.355-.032-.511-.098a1.231 1.231 0 01-.676-.676 1.26 1.26 0 01-.098-.504 1.28 1.28 0 01.368-.914c.113-.113.246-.203.406-.27.156-.062.328-.097.512-.097m-13.457 1.27c0-.422.273-.774.722-.774.426 0 .715.336.715.774 0 .441-.289.777-.715.777-.449 0-.722-.352-.722-.777m1.925 0V20.39h-.515v.293c-.164-.22-.414-.356-.754-.356-.664 0-1.188.531-1.188 1.27 0 .742.524 1.273 1.188 1.273.34 0 .59-.137.754-.355v.293h.515zm-2.918 1.21V21.29c0-.57-.355-.953-.933-.96-.305-.005-.617.093-.836.429a.88.88 0 00-.79-.43c-.253 0-.5.078-.694.36v-.297h-.516v2.418h.52v-1.34c0-.422.23-.645.581-.645.344 0 .52.227.52.637v1.348h.523v-1.34c0-.422.239-.645.582-.645.352 0 .524.227.524.637v1.348zm16.293-.18v.06h.055a.074.074 0 00.031-.008c.004-.004.012-.012.012-.024 0-.008-.008-.015-.012-.02-.007-.007-.02-.007-.03-.007zm.055-.042c.027 0 .05.008.067.02a.063.063 0 01.023.05c0 .02-.008.035-.02.047a.088.088 0 01-.05.024l.07.082h-.055l-.066-.082h-.024v.082h-.046v-.223zm-.012.3a.153.153 0 00.07-.015.155.155 0 00.06-.039c.015-.016.027-.039.038-.059a.227.227 0 00.012-.074.227.227 0 00-.012-.074.219.219 0 00-.039-.059.155.155 0 00-.058-.039.153.153 0 00-.07-.015.159.159 0 00-.075.015.155.155 0 00-.058.04.155.155 0 00-.04.058c-.007.023-.015.047-.015.074 0 .028.008.051.015.074.008.02.024.043.04.059a.155.155 0 00.058.04.159.159 0 00.074.015m0-.43c.032 0 .063.008.094.02a.25.25 0 01.074.05c.024.024.04.047.051.078.016.028.02.06.02.094a.203.203 0 01-.02.094.194.194 0 01-.05.074.194.194 0 01-.075.051.203.203 0 01-.094.02.209.209 0 01-.097-.02.194.194 0 01-.075-.05c-.023-.02-.039-.048-.054-.075a.263.263 0 01-.016-.094c0-.035.004-.066.016-.094a.25.25 0 01.129-.129.272.272 0 01.097-.019" fill="#231f20"/></svg>