<svg id="NBA" xmlns="http://www.w3.org/2000/svg" viewBox="0 0 109.31 35"><defs><style>.cls-2{fill:#00428b}.cls-3{fill:#d91a32}</style></defs><path d="M11.82 0h-8.2A3.63 3.63 0 0 0 0 3.62v27.75A3.63 3.63 0 0 0 3.62 35h8.19a3.64 3.64 0 0 0 3.63-3.63V3.62A3.63 3.63 0 0 0 11.82 0" fill="#fff"/><path class="cls-2" d="M11.47 30.84c-.44-.4-.15-.57-.17-.72-.29-1.21-1.26-1.95-.76-2.35-.12-.4-.37-.9-.36-.9a15.06 15.06 0 0 1-3-2.47c-.26-.29-.71-.57-.8-.81a23.64 23.64 0 0 1-2.54-3.76l-.72-.1c-.33-1.33-1.42-2.45-1.44-3.79a7.51 7.51 0 0 1 .32-1.8 2.42 2.42 0 0 1 .51-.58v-.36c-1.57 0-1.12-.12-1.39-.72-.19-.42-.05-.51 0-.81a17.74 17.74 0 0 1 1.2-2.8c.09-.31.39-1 .39-1 1.17-2.38 1.6-2.2 3-2.34l.07-.1c1.39-.06 1.16-.17 1.36-1.5-.2.09-.26-.42-.26-.42-.11-.76.21-.62.36-.63 0-1.25.16-1.65 1.06-2H3.62A2.77 2.77 0 0 0 .85 3.62v27.75a2.77 2.77 0 0 0 2.77 2.77h8.19c-.94-.51-.38-1.47-.35-3.3"/><path class="cls-3" d="M9.79 6.42v.12c.25.15.38.26.63.43.67.42 1.49 1.17 1.39 3.75.19.56.27 1.67.44 2a5.67 5.67 0 0 1 .68 1.79s.1 1 .23 1.09c.69.16.49.22.59.34s.51.13.51.5a2.46 2.46 0 0 1 .32.58V3.62A2.77 2.77 0 0 0 11.82.85H9.17a1.27 1.27 0 0 1 .81.61c.34 0 .75.8.12 1.93.28.19.06.47-.14.79-.06.1-.12.29-.31.28-.24.51-.53 1-.75 1a.36.36 0 0 0 0 .4 3.76 3.76 0 0 1 .91.53M14.58 18.85a2.47 2.47 0 1 1-2.88-3.31c-.28-.71-.89-1.87-1.06-2.25s-.58-2.72-.66-3.19c0-.1-1.07.61-1.07.65s-.78 1.95-.81 2a2.88 2.88 0 0 0 0 .32s.35 0 .56.66.82 2.88.82 2.88a1.48 1.48 0 0 1-.17.16c.78 2.61.51 3.73.86 4.5.44 1.08.56.94.94 1.84.27.66.57 3.26.67 3.38a2.42 2.42 0 0 1 .65 1.25 6.35 6.35 0 0 0-.23 1.72c.08.31.12 1 .26 1.13s.13.26.07.37-.06.1 0 .15c.23.82 1 2.22-.23 3a2.75 2.75 0 0 0 2.33-2.74z"/><path class="cls-2" d="M23.56 34.19h-3.91V.92h6.05l4.05 27.44c-.61-6.52-1.4-17.05-1.4-22.6V.92h3.91v33.27h-5.53L23 7.54c.33 6 .56 13.09.56 17.1zM39 19.75V30h.75c1.4 0 1.82-.79 1.82-2.38V22c0-1.63-.51-2.24-2-2.24zm0-14.63v11h.56c1.58 0 2-.61 2-2.42V7.35c0-1.54-.47-2.24-1.82-2.24zm-4.49 29.07V.92h5.54c3.68 0 6 2 6 6.66v4.89c0 3-.93 4.57-2.24 5.36 1.3.84 2.24 2.33 2.24 4.89v4.85c0 4.57-2.42 6.62-6 6.62zM51.79 24.17h2.38l-.37-6.1C53.66 15.65 53.28 8 53 3.81h-.19l-.65 14.26zm2.61 3.77h-2.8l-.37 6.24h-4.52L50 .92h6.34l3.17 33.27h-4.74zM73.67 28.32c0 4.52-1.59 6.15-4.34 6.15-3 0-4.43-1.63-4.43-6.15v-5h2.38v5.55c0 2.38.42 3.36 2.05 3.36 1.4 0 2-1 2-3.36v-1.95c0-2.56-.23-4.1-3-7.93-2.19-3.08-3.4-4.94-3.4-9.23v-3c0-4.52 1.68-6.16 4.43-6.16 2.94 0 4.34 1.63 4.34 6.16v5h-2.41v-5.5c0-2.38-.33-3.36-2-3.36-1.4 0-2.05 1-2.05 3.36v3c0 3.45.61 4.66 2.7 7.65 3 4.2 3.68 5.5 3.68 9.37zM80.46 34.29c-2.33 0-3.54-.84-3.54-3.73V10.13h-1.44V8.08h1.45v-4.8l2.24-.56v5.36h2.13v2.05h-2.14v20.33c0 1.26.51 1.73 1.68 1.73h.65v2a7 7 0 0 1-1 .09M91.56 29c0 4.34-1.63 5.5-4.2 5.5s-4.2-1.17-4.2-5.5V13.4c0-4.29 1.63-5.6 4.2-5.6s4.2 1.17 4.2 5.5zm-6.15-16.26v16.79c0 1.87.37 2.94 2 2.94s2-1.07 2-2.94V12.74c0-1.87-.37-2.94-2-2.94s-2 1.07-2 2.94M96.4 34.19h-2.24V8.08h1.49a5.72 5.72 0 0 1 .61 1.77c.51-1.4 2.05-2.05 3.73-2.05v2.28h-.19c-1.82 0-3.45.7-3.45 2.1zM105.11 34.47c-2.56 0-4.2-1.17-4.2-5.5V13.4c0-4.29 1.63-5.6 4.2-5.6s4.2 1.17 4.2 5.5v9.33h-6.15v6.9c0 1.87.37 2.94 2 2.94s2-1.07 2-2.94v-3.45h2.24V29c0 4.34-1.63 5.5-4.2 5.5m-2-13.8h3.92v-7.96c0-1.87-.37-2.94-2-2.94s-2 1.07-2 2.94z"/></svg>