<svg viewBox="0 0 54 35" id="paypal" xmlns="http://www.w3.org/2000/svg"><defs><linearGradient id="cta" x1="50%" x2="50%" y1=".333%" y2="98.965%"><stop offset="0%" stop-color="#FFF"/><stop offset="100%" stop-color="#E6E6E6"/></linearGradient></defs><g fill="none" fill-rule="evenodd" transform="translate(1 1)"><rect width="52.568" height="33" fill="url(#cta)" stroke="#D5D5D5" stroke-width=".25" rx="2"/><path fill="#113984" d="M18.65 22.37c.74 0 1.426.407 1.332 1.425-.11 1.207-.752 1.878-1.76 1.88h-.88c-.127 0-.188.106-.222.32l-.17 1.1c-.025.165-.11.247-.233.247h-.82c-.13 0-.176-.085-.147-.274l.678-4.402c.033-.216.115-.297.26-.297h1.96zm-1.336 2.355h.668c.417-.016.694-.31.722-.837.018-.327-.2-.56-.546-.56l-.628.004-.216 1.393zm4.896 2.28c.075-.07.15-.106.14-.02l-.026.203c-.014.107.028.164.125.164h.727c.123 0 .183-.05.213-.243l.448-2.856c.023-.143-.01-.213-.12-.213h-.8c-.07 0-.106.042-.125.153l-.03.176c-.015.09-.057.107-.095.014-.136-.326-.482-.472-.968-.462-1.123.024-1.88.888-1.96 1.996-.064.857.542 1.53 1.34 1.53.58 0 .838-.175 1.13-.444zm-.61-.44a.738.738 0 01-.75-.87c.07-.48.523-.87 1.006-.87s.82.39.75.87c-.07.48-.522.87-1.005.87zm3.664-2.534h-.735c-.154 0-.216.114-.167.258l.916 2.722-.904 1.294c-.075.108-.017.207.09.207h.83c.123 0 .183-.03.246-.122l2.818-4.1c.087-.126.046-.258-.096-.258h-.785c-.135 0-.19.053-.267.166l-1.175 1.73-.524-1.733c-.032-.106-.11-.162-.25-.162z"/><path fill="#009EE3" d="M31.294 22.37c.743 0 1.427.407 1.334 1.425-.11 1.207-.753 1.878-1.76 1.88h-.88c-.128 0-.19.106-.222.32l-.17 1.1c-.026.165-.11.247-.234.247h-.82c-.13 0-.176-.085-.146-.274l.677-4.402c.033-.216.115-.297.26-.297h1.96zm-1.335 2.355h.667c.417-.016.695-.31.722-.837.017-.327-.2-.56-.547-.56l-.628.004-.216 1.393zm4.895 2.28c.075-.07.15-.106.14-.02l-.026.203c-.015.107.027.164.124.164h.728c.123 0 .183-.05.213-.243l.45-2.856c.02-.143-.013-.213-.12-.213h-.8c-.073 0-.108.042-.127.153l-.03.176c-.015.09-.057.107-.095.014-.136-.326-.482-.472-.968-.462-1.123.024-1.88.888-1.96 1.996-.064.857.542 1.53 1.34 1.53.58 0 .838-.175 1.13-.444zm-.61-.44a.738.738 0 01-.75-.87c.07-.48.523-.87 1.006-.87.485 0 .82.39.75.87-.07.48-.52.87-1.004.87zm3.36.792h-.84c-.068 0-.114-.053-.104-.118l.74-4.743a.145.145 0 01.14-.118h.84c.066 0 .113.052.103.117l-.74 4.742a.145.145 0 01-.14.117zM27.092 9.56h4.07c2.187 0 3.01 1.102 2.883 2.724-.21 2.674-1.832 4.153-3.985 4.153h-1.087c-.294 0-.493.194-.573.722l-.467 3.064c-.03.2-.135.316-.293.33h-2.553c-.24 0-.325-.183-.263-.58l1.56-9.833c.062-.393.278-.58.708-.58z"/><path fill="#113984" d="M24.547 6.175h4.075c1.148 0 2.51.038 3.42.838.608.534.928 1.386.854 2.3-.25 3.1-2.11 4.837-4.607 4.837h-2.01c-.343 0-.57.225-.667.837l-.56 3.555c-.037.23-.137.366-.32.382h-2.51c-.28 0-.378-.212-.306-.672L23.725 6.85c.073-.457.323-.675.822-.675z"/><path fill="#172C70" d="M25.672 14.63l.71-4.49c.064-.393.28-.58.71-.58h4.07c.675 0 1.22.104 1.647.298-.41 2.76-2.202 4.292-4.547 4.292h-2.01c-.265 0-.463.134-.58.48z"/></g></svg>