<svg xmlns="http://www.w3.org/2000/svg" xmlns:xlink="http://www.w3.org/1999/xlink" width="512" height="512"><switch><g><defs><circle id="a" cx="256" cy="256" r="254"/></defs><clipPath id="b"><use xlink:href="#a" overflow="visible"/></clipPath><path clip-path="url(#b)" fill="#337EBE" d="M-258.325 0h1027.65v513.827h-1027.65z"/><g clip-path="url(#b)"><defs><path id="c" d="M-258.325 0h1027.65v513.827h-1027.65z"/></defs><clipPath id="d"><use xlink:href="#c" overflow="visible"/></clipPath><path transform="scale(-1) rotate(26.565 1103.227 -1112.123)" clip-path="url(#d)" fill="#FFF" d="M-319.803 209.047H844.861v102.762H-319.803z"/><path clip-path="url(#d)" fill="#C7463D" d="M-258.325 0l520.853 260.428-15.315 30.639L-273.643 30.64zM277.851 229.788L798.7 490.218l-15.321 30.635-520.851-260.425z"/><path transform="scale(-1) rotate(-26.565 -1073.432 1112.115)" clip-path="url(#d)" fill="#FFF" d="M-319.806 202.014H844.86v102.762H-319.806z"/><path transform="scale(-1) rotate(-26.565 -1689.959 41.36)" clip-path="url(#d)" fill="#C7463D" d="M-281.404 381.804h582.333v34.258h-582.333z"/><path clip-path="url(#d)" fill="#C7463D" d="M247.213 222.758L768.062-37.669l15.317 30.638-520.851 260.429z"/><path clip-path="url(#d)" fill="#FFF" d="M169.862 0h171.273v513.827H169.862z"/><path clip-path="url(#d)" fill="#FFF" d="M-258.325 171.274h1027.65v171.272h-1027.65z"/><path clip-path="url(#d)" fill="#C7463D" d="M204.114 0h102.769v513.827H204.114z"/><path clip-path="url(#d)" fill="#C7463D" d="M-258.325 205.529h1027.65v102.767h-1027.65z"/></g></g></switch></svg>