<svg viewBox="0 0 66 22" id="visa" xmlns="http://www.w3.org/2000/svg"><path fill="#1A1F71" fill-rule="evenodd" d="M32.538.38l-4.39 20.612h-5.31l4.39-20.61h5.31zm22.338 13.31l2.797-7.738 1.608 7.738h-4.404zm5.928 7.304h4.906L61.43.382h-4.535c-1.02 0-1.88.593-2.26 1.508L46.67 20.992h5.57l1.11-3.076h6.812l.642 3.076zm-13.862-6.725c.025-5.448-7.49-5.746-7.438-8.17.017-.746.718-1.533 2.25-1.734.763-.098 2.857-.174 5.238.922l.93-4.373C46.648.45 45 0 42.957 0c-5.246 0-8.943 2.803-8.97 6.82-.035 2.964 2.634 4.62 4.65 5.61 2.065 1.008 2.758 1.654 2.753 2.56-.016 1.382-1.653 1.993-3.178 2.013-2.67.046-4.22-.72-5.455-1.296l-.963 4.515c1.24.572 3.53 1.065 5.906 1.095 5.577 0 9.226-2.77 9.242-7.05zM24.952.38L16.35 20.993h-5.615L6.502 4.542C6.242 3.527 6.02 3.16 5.24 2.73 3.964 2.033 1.856 1.38 0 .975L.128.38H9.16c1.154 0 2.188.767 2.45 2.103l2.237 11.93L19.37.38h5.583z"/></svg>